<mxfile host="app.diagrams.net" modified="2024-03-12T23:42:52.412Z" agent="Mozilla/5.0 (Windows NT 10.0; Win64; x64) AppleWebKit/537.36 (KHTML, like Gecko) Chrome/122.0.0.0 Safari/537.36 Edg/122.0.0.0" etag="Uc_OzTCI0mx68Tqllxc8" version="24.0.4" type="device">
  <diagram name="Página-1" id="5IrK992Xa0M2b_9PDXXP">
    <mxGraphModel dx="2484" dy="2307" grid="1" gridSize="10" guides="1" tooltips="1" connect="1" arrows="1" fold="1" page="1" pageScale="1" pageWidth="827" pageHeight="1169" math="0" shadow="0">
      <root>
        <mxCell id="0" />
        <mxCell id="1" parent="0" />
        <mxCell id="elJQTPNYWxnJ1hHzXDNp-23" value="" style="edgeStyle=orthogonalEdgeStyle;rounded=0;orthogonalLoop=1;jettySize=auto;html=1;" edge="1" parent="1" source="elJQTPNYWxnJ1hHzXDNp-21" target="elJQTPNYWxnJ1hHzXDNp-22">
          <mxGeometry relative="1" as="geometry" />
        </mxCell>
        <mxCell id="elJQTPNYWxnJ1hHzXDNp-21" value="INICIO" style="ellipse;whiteSpace=wrap;html=1;fillColor=#5EA9FF;" vertex="1" parent="1">
          <mxGeometry x="20" y="30" width="120" height="80" as="geometry" />
        </mxCell>
        <mxCell id="elJQTPNYWxnJ1hHzXDNp-25" value="" style="edgeStyle=orthogonalEdgeStyle;rounded=0;orthogonalLoop=1;jettySize=auto;html=1;" edge="1" parent="1" source="elJQTPNYWxnJ1hHzXDNp-22" target="elJQTPNYWxnJ1hHzXDNp-24">
          <mxGeometry relative="1" as="geometry" />
        </mxCell>
        <mxCell id="elJQTPNYWxnJ1hHzXDNp-22" value="&quot;Solicitar numero entre 1 y 10&quot;" style="shape=parallelogram;perimeter=parallelogramPerimeter;whiteSpace=wrap;html=1;fixedSize=1;fillColor=#80FF00;" vertex="1" parent="1">
          <mxGeometry x="310" y="40" width="200" height="60" as="geometry" />
        </mxCell>
        <mxCell id="elJQTPNYWxnJ1hHzXDNp-27" value="" style="edgeStyle=orthogonalEdgeStyle;rounded=0;orthogonalLoop=1;jettySize=auto;html=1;" edge="1" parent="1" source="elJQTPNYWxnJ1hHzXDNp-24" target="elJQTPNYWxnJ1hHzXDNp-26">
          <mxGeometry relative="1" as="geometry" />
        </mxCell>
        <mxCell id="elJQTPNYWxnJ1hHzXDNp-29" value="" style="edgeStyle=orthogonalEdgeStyle;rounded=0;orthogonalLoop=1;jettySize=auto;html=1;" edge="1" parent="1" source="elJQTPNYWxnJ1hHzXDNp-24" target="elJQTPNYWxnJ1hHzXDNp-28">
          <mxGeometry relative="1" as="geometry" />
        </mxCell>
        <mxCell id="elJQTPNYWxnJ1hHzXDNp-24" value="¿El numero esta entre el 1 y el 10?" style="rhombus;whiteSpace=wrap;html=1;fillColor=#474D0A;" vertex="1" parent="1">
          <mxGeometry x="340" y="160" width="140" height="140" as="geometry" />
        </mxCell>
        <mxCell id="elJQTPNYWxnJ1hHzXDNp-31" value="" style="edgeStyle=orthogonalEdgeStyle;rounded=0;orthogonalLoop=1;jettySize=auto;html=1;" edge="1" parent="1" source="elJQTPNYWxnJ1hHzXDNp-35" target="elJQTPNYWxnJ1hHzXDNp-30">
          <mxGeometry relative="1" as="geometry" />
        </mxCell>
        <mxCell id="elJQTPNYWxnJ1hHzXDNp-26" value="SI" style="shape=parallelogram;perimeter=parallelogramPerimeter;whiteSpace=wrap;html=1;fixedSize=1;fillColor=#80FF00;" vertex="1" parent="1">
          <mxGeometry x="130" y="200" width="120" height="60" as="geometry" />
        </mxCell>
        <mxCell id="elJQTPNYWxnJ1hHzXDNp-33" value="" style="edgeStyle=orthogonalEdgeStyle;rounded=0;orthogonalLoop=1;jettySize=auto;html=1;" edge="1" parent="1" source="elJQTPNYWxnJ1hHzXDNp-28" target="elJQTPNYWxnJ1hHzXDNp-32">
          <mxGeometry relative="1" as="geometry" />
        </mxCell>
        <mxCell id="elJQTPNYWxnJ1hHzXDNp-28" value="NO" style="shape=parallelogram;perimeter=parallelogramPerimeter;whiteSpace=wrap;html=1;fixedSize=1;fillColor=#80FF00;" vertex="1" parent="1">
          <mxGeometry x="660" y="200" width="120" height="60" as="geometry" />
        </mxCell>
        <mxCell id="elJQTPNYWxnJ1hHzXDNp-38" value="" style="edgeStyle=orthogonalEdgeStyle;rounded=0;orthogonalLoop=1;jettySize=auto;html=1;" edge="1" parent="1" source="elJQTPNYWxnJ1hHzXDNp-30" target="elJQTPNYWxnJ1hHzXDNp-37">
          <mxGeometry relative="1" as="geometry" />
        </mxCell>
        <mxCell id="elJQTPNYWxnJ1hHzXDNp-30" value="&quot;Generar tabla de multiplicar&quot;" style="shape=parallelogram;perimeter=parallelogramPerimeter;whiteSpace=wrap;html=1;fixedSize=1;fillColor=#80FF00;" vertex="1" parent="1">
          <mxGeometry x="100" y="470" width="180" height="60" as="geometry" />
        </mxCell>
        <mxCell id="elJQTPNYWxnJ1hHzXDNp-34" style="edgeStyle=orthogonalEdgeStyle;rounded=0;orthogonalLoop=1;jettySize=auto;html=1;entryX=0.5;entryY=0;entryDx=0;entryDy=0;" edge="1" parent="1" source="elJQTPNYWxnJ1hHzXDNp-32" target="elJQTPNYWxnJ1hHzXDNp-21">
          <mxGeometry relative="1" as="geometry">
            <Array as="points">
              <mxPoint x="720" y="-40" />
              <mxPoint x="80" y="-40" />
            </Array>
          </mxGeometry>
        </mxCell>
        <mxCell id="elJQTPNYWxnJ1hHzXDNp-32" value="&quot;Mostrar mensaje de error&quot;" style="shape=parallelogram;perimeter=parallelogramPerimeter;whiteSpace=wrap;html=1;fixedSize=1;fillColor=#80FF00;" vertex="1" parent="1">
          <mxGeometry x="635" y="-10" width="170" height="60" as="geometry" />
        </mxCell>
        <mxCell id="elJQTPNYWxnJ1hHzXDNp-36" value="" style="edgeStyle=orthogonalEdgeStyle;rounded=0;orthogonalLoop=1;jettySize=auto;html=1;" edge="1" parent="1" source="elJQTPNYWxnJ1hHzXDNp-26" target="elJQTPNYWxnJ1hHzXDNp-35">
          <mxGeometry relative="1" as="geometry">
            <mxPoint x="190" y="260" as="sourcePoint" />
            <mxPoint x="190" y="470" as="targetPoint" />
          </mxGeometry>
        </mxCell>
        <mxCell id="elJQTPNYWxnJ1hHzXDNp-35" value="&quot;Numero valido&quot;" style="shape=parallelogram;perimeter=parallelogramPerimeter;whiteSpace=wrap;html=1;fixedSize=1;fillColor=#80FF00;" vertex="1" parent="1">
          <mxGeometry x="130" y="310" width="120" height="60" as="geometry" />
        </mxCell>
        <mxCell id="elJQTPNYWxnJ1hHzXDNp-40" value="" style="edgeStyle=orthogonalEdgeStyle;rounded=0;orthogonalLoop=1;jettySize=auto;html=1;" edge="1" parent="1" source="elJQTPNYWxnJ1hHzXDNp-37" target="elJQTPNYWxnJ1hHzXDNp-39">
          <mxGeometry relative="1" as="geometry" />
        </mxCell>
        <mxCell id="elJQTPNYWxnJ1hHzXDNp-37" value="&quot;Guardar tabla en archivo de texto&quot;" style="shape=parallelogram;perimeter=parallelogramPerimeter;whiteSpace=wrap;html=1;fixedSize=1;fillColor=#80FF00;" vertex="1" parent="1">
          <mxGeometry x="390" y="470" width="230" height="60" as="geometry" />
        </mxCell>
        <mxCell id="elJQTPNYWxnJ1hHzXDNp-42" value="" style="edgeStyle=orthogonalEdgeStyle;rounded=0;orthogonalLoop=1;jettySize=auto;html=1;" edge="1" parent="1" source="elJQTPNYWxnJ1hHzXDNp-39" target="elJQTPNYWxnJ1hHzXDNp-41">
          <mxGeometry relative="1" as="geometry" />
        </mxCell>
        <mxCell id="elJQTPNYWxnJ1hHzXDNp-39" value="Mostrar mensaje de creación exitosa&quot;" style="shape=parallelogram;perimeter=parallelogramPerimeter;whiteSpace=wrap;html=1;fixedSize=1;fillColor=#80FF00;" vertex="1" parent="1">
          <mxGeometry x="755" y="470" width="175" height="60" as="geometry" />
        </mxCell>
        <mxCell id="elJQTPNYWxnJ1hHzXDNp-44" value="" style="edgeStyle=orthogonalEdgeStyle;rounded=0;orthogonalLoop=1;jettySize=auto;html=1;" edge="1" parent="1" source="elJQTPNYWxnJ1hHzXDNp-41" target="elJQTPNYWxnJ1hHzXDNp-43">
          <mxGeometry relative="1" as="geometry" />
        </mxCell>
        <mxCell id="elJQTPNYWxnJ1hHzXDNp-41" value="Guardar tabla en archivo" style="shape=parallelogram;perimeter=parallelogramPerimeter;whiteSpace=wrap;html=1;fixedSize=1;fillColor=#80FF00;" vertex="1" parent="1">
          <mxGeometry x="726.25" y="630" width="232.5" height="60" as="geometry" />
        </mxCell>
        <mxCell id="elJQTPNYWxnJ1hHzXDNp-43" value="FIN" style="ellipse;whiteSpace=wrap;html=1;fillColor=#5EA9FF;" vertex="1" parent="1">
          <mxGeometry x="420" y="620" width="150" height="80" as="geometry" />
        </mxCell>
      </root>
    </mxGraphModel>
  </diagram>
</mxfile>
